<?xml version="1.0" standalone="no"?>
<!DOCTYPE svg PUBLIC "-//W3C//DTD SVG 20010904//EN"
 "http://www.w3.org/TR/2001/REC-SVG-20010904/DTD/svg10.dtd">
<svg version="1.0" xmlns="http://www.w3.org/2000/svg"
 width="1040.000000pt" height="1040.000000pt" viewBox="0 0 1040.000000 1040.000000"
 preserveAspectRatio="xMidYMid meet">
<metadata>
Created by potrace 1.11, written by Peter Selinger 2001-2013
</metadata>
<g transform="translate(0.000000,1040.000000) scale(0.100000,-0.100000)"
fill="#000000" stroke="none">
<path d="M3673 10163 l-133 -4 0 -24 c0 -25 -1 -25 -95 -25 -95 0 -95 0 -95
-25 0 -24 -2 -25 -75 -25 -68 0 -75 -2 -75 -20 0 -18 -7 -20 -70 -20 -56 0
-70 -3 -70 -15 0 -12 -13 -15 -60 -15 l-60 0 0 -35 0 -35 -70 0 c-56 0 -70 -3
-70 -15 0 -11 -12 -15 -45 -15 -41 0 -45 -2 -45 -25 0 -23 -4 -25 -45 -25 -33
0 -45 -4 -45 -15 0 -12 -13 -15 -60 -15 -33 0 -60 -4 -60 -10 0 -5 -22 -10
-50 -10 -43 0 -50 -3 -50 -20 0 -17 -7 -20 -40 -20 -33 0 -40 -3 -40 -20 0
-11 -7 -20 -15 -20 -8 0 -15 -9 -15 -20 0 -17 -7 -20 -45 -20 -41 0 -45 -2
-45 -25 0 -24 -3 -25 -55 -25 -52 0 -55 -1 -55 -25 0 -14 -4 -25 -10 -25 -5 0
-10 -9 -10 -20 0 -16 -7 -20 -37 -20 -21 0 -55 -3 -75 -6 -32 -6 -38 -11 -38
-30 0 -21 -5 -24 -40 -24 -38 0 -40 -2 -40 -30 0 -28 -3 -30 -35 -30 -28 0
-35 -4 -35 -20 0 -11 -7 -20 -15 -20 -8 0 -15 -7 -15 -15 0 -11 -12 -15 -45
-15 -43 0 -45 -1 -45 -30 0 -20 -5 -30 -15 -30 -8 0 -15 -7 -15 -15 0 -9 -9
-15 -25 -15 -20 0 -25 -5 -25 -25 0 -16 -6 -25 -15 -25 -8 0 -15 -7 -15 -15 0
-10 -11 -15 -35 -15 -28 0 -35 -4 -35 -20 0 -13 -7 -20 -20 -20 -13 0 -20 -7
-20 -20 0 -17 -7 -20 -45 -20 -41 0 -45 -2 -45 -25 0 -16 -6 -25 -15 -25 -8 0
-15 -7 -15 -15 0 -9 -9 -15 -25 -15 -16 0 -25 -6 -25 -15 0 -8 -9 -15 -20 -15
-17 0 -20 -7 -20 -45 0 -38 -3 -45 -20 -45 -11 0 -20 -7 -20 -15 0 -10 -10
-15 -34 -15 -33 0 -35 -2 -42 -45 -6 -43 -8 -45 -40 -45 -27 0 -34 -4 -34 -20
0 -11 -7 -20 -15 -20 -8 0 -15 -9 -15 -20 0 -15 -7 -20 -25 -20 -23 0 -25 -4
-25 -45 0 -38 -3 -45 -20 -45 -15 0 -20 -7 -20 -25 0 -20 -5 -25 -24 -25 -47
0 -56 -10 -56 -56 0 -32 -4 -44 -15 -44 -9 0 -15 -9 -15 -25 0 -21 -5 -25 -30
-25 -29 0 -30 -1 -30 -50 0 -47 -2 -50 -25 -50 -16 0 -25 -6 -25 -15 0 -8 -9
-15 -20 -15 -16 0 -20 -7 -20 -35 0 -31 -3 -35 -25 -35 -22 0 -25 -4 -25 -35
0 -24 -5 -35 -15 -35 -8 0 -15 -9 -15 -20 0 -13 -7 -20 -20 -20 -17 0 -20 -7
-20 -40 0 -39 -1 -40 -35 -40 l-35 0 0 -50 c0 -38 -4 -50 -15 -50 -12 0 -15
-13 -15 -60 0 -59 0 -60 -29 -60 -26 0 -29 -3 -35 -46 -3 -26 -6 -64 -6 -85 0
-35 -3 -39 -25 -39 -24 0 -25 -3 -25 -55 0 -52 -1 -55 -25 -55 -24 0 -25 -3
-25 -60 0 -57 -1 -60 -25 -60 -24 0 -25 -3 -25 -55 0 -48 -2 -55 -20 -55 -18
0 -20 -7 -20 -85 l0 -85 -28 0 -29 0 -6 -122 c-4 -66 -7 -159 -7 -205 l0 -83
-35 0 -35 0 0 -555 0 -555 35 0 35 0 0 -87 c0 -49 3 -145 7 -215 l6 -128 29 0
28 0 0 -80 c0 -73 2 -80 20 -80 17 0 20 -7 20 -45 0 -41 2 -45 25 -45 24 0 25
-2 25 -75 0 -73 1 -75 25 -75 24 0 25 -3 25 -55 0 -51 2 -55 24 -55 23 0 25
-4 31 -85 l7 -85 29 0 c29 0 29 -1 29 -60 0 -47 3 -60 15 -60 11 0 15 -11 15
-40 0 -39 1 -40 35 -40 35 0 35 0 35 -45 0 -38 3 -45 20 -45 11 0 20 -7 20
-15 0 -8 7 -15 15 -15 11 0 15 -11 15 -40 0 -36 3 -40 25 -40 22 0 25 -4 25
-35 0 -28 4 -35 20 -35 13 0 20 -7 20 -20 0 -15 7 -20 25 -20 23 0 25 -4 25
-45 0 -43 1 -45 30 -45 23 0 30 -4 30 -20 0 -11 7 -20 15 -20 11 0 15 -12 15
-50 0 -27 5 -50 10 -50 6 0 10 -7 10 -15 0 -10 10 -15 30 -15 20 0 30 -5 30
-15 0 -8 9 -15 20 -15 16 0 20 -7 20 -35 0 -31 3 -35 25 -35 22 0 25 -4 25
-35 0 -24 5 -35 15 -35 8 0 15 -9 15 -20 0 -16 7 -20 34 -20 33 0 35 -2 42
-45 6 -43 8 -45 40 -45 24 0 34 -5 34 -15 0 -8 9 -15 20 -15 17 0 20 -7 20
-39 0 -39 0 -40 45 -47 43 -6 45 -8 45 -40 0 -24 5 -34 15 -34 8 0 15 -7 15
-15 0 -11 12 -15 45 -15 41 0 45 -2 45 -25 0 -18 5 -25 20 -25 13 0 20 -7 20
-20 0 -16 7 -20 35 -20 28 0 35 -4 35 -20 0 -11 7 -20 15 -20 8 0 15 -7 15
-15 0 -9 9 -15 25 -15 18 0 25 -5 25 -20 0 -11 7 -20 15 -20 8 0 15 -9 15 -20
0 -17 7 -20 45 -20 41 0 45 -2 45 -25 0 -16 6 -25 15 -25 8 0 15 -9 15 -20 0
-16 7 -20 35 -20 28 0 35 -4 35 -20 0 -17 7 -20 40 -20 36 0 40 -2 40 -25 0
-20 5 -25 25 -25 16 0 25 -6 25 -15 0 -11 12 -15 50 -15 43 0 50 -3 50 -20 0
-11 5 -20 10 -20 6 0 10 -9 10 -20 0 -18 7 -20 55 -20 42 0 55 -3 55 -15 0
-11 12 -15 45 -15 43 0 45 -1 45 -30 0 -20 5 -30 15 -30 8 0 15 -7 15 -15 0
-11 11 -15 40 -15 39 0 40 -1 40 -34 l0 -34 110 -7 c98 -7 110 -10 110 -26 0
-16 8 -19 45 -19 33 0 45 -4 45 -15 0 -11 12 -15 45 -15 41 0 45 -2 45 -25 0
-24 2 -25 70 -25 56 0 70 -3 70 -15 0 -12 13 -15 60 -15 l60 0 0 -30 0 -30 70
0 c56 0 70 -3 70 -15 0 -12 15 -15 75 -15 68 0 75 -2 75 -20 0 -19 7 -20 95
-20 95 0 95 0 95 -25 l0 -25 130 0 c109 0 130 -2 130 -15 0 -13 75 -15 615
-15 540 0 615 2 615 15 0 13 21 15 130 15 l130 0 0 25 c0 25 1 25 85 25 78 0
85 2 85 20 0 19 7 20 90 20 73 0 90 3 90 15 0 12 15 15 75 15 l75 0 0 30 0 30
60 0 c47 0 60 3 60 15 0 12 13 15 60 15 57 0 60 1 60 25 0 23 4 25 40 25 29 0
40 4 40 15 0 12 13 15 55 15 48 0 55 2 55 20 0 16 7 20 38 20 20 0 67 3 105 7
l67 6 0 33 0 34 55 0 c42 0 55 3 55 15 0 8 7 15 15 15 10 0 15 10 15 30 0 29
2 30 45 30 33 0 45 4 45 15 0 11 12 15 50 15 43 0 50 3 50 20 0 16 7 20 35 20
28 0 35 -4 35 -20 0 -15 7 -20 25 -20 16 0 25 -6 25 -15 0 -8 9 -15 20 -15 16
0 20 -7 20 -30 0 -23 4 -30 20 -30 11 0 20 -7 20 -15 0 -10 10 -15 30 -15 27
0 30 -3 30 -34 0 -31 3 -34 35 -40 26 -5 35 -12 35 -26 0 -13 7 -20 20 -20 11
0 20 -7 20 -15 0 -10 11 -15 35 -15 31 0 35 -3 35 -25 0 -16 6 -25 15 -25 8 0
15 -7 15 -15 0 -9 9 -15 25 -15 21 0 25 -5 25 -30 0 -23 4 -30 20 -30 11 0 20
-7 20 -15 0 -8 9 -15 20 -15 13 0 20 -7 20 -20 0 -11 7 -20 15 -20 9 0 15 -9
15 -25 0 -22 4 -25 35 -25 24 0 35 -5 35 -15 0 -8 7 -15 15 -15 8 0 15 -9 15
-20 0 -16 7 -20 30 -20 23 0 30 -4 30 -20 0 -11 5 -20 10 -20 6 0 10 -9 10
-20 0 -13 7 -20 20 -20 16 0 20 -7 20 -30 0 -25 4 -30 25 -30 16 0 25 -6 25
-15 0 -8 9 -15 20 -15 15 0 20 -7 20 -25 0 -22 4 -25 35 -25 31 0 35 -3 35
-25 0 -16 6 -25 15 -25 8 0 15 -7 15 -15 0 -8 7 -15 15 -15 9 0 15 -9 15 -25
0 -20 5 -25 25 -25 15 0 25 -6 25 -14 0 -10 16 -17 45 -22 39 -5 45 -10 45
-30 0 -19 5 -24 25 -24 18 0 25 -5 25 -20 0 -11 7 -20 15 -20 10 0 15 -10 15
-30 0 -25 4 -30 25 -30 18 0 25 -5 25 -20 0 -11 7 -20 15 -20 8 0 15 -9 15
-20 0 -16 7 -20 35 -20 24 0 35 -5 35 -15 0 -8 7 -15 15 -15 8 0 15 -7 15 -15
0 -10 10 -15 30 -15 23 0 30 -4 30 -20 0 -11 5 -20 10 -20 6 0 10 -16 10 -35
0 -31 3 -35 25 -35 16 0 25 -6 25 -15 0 -8 9 -15 20 -15 11 0 20 -7 20 -15 0
-8 9 -15 20 -15 16 0 20 -7 20 -30 0 -28 3 -30 35 -30 24 0 35 -5 35 -14 0 -8
14 -17 30 -21 26 -6 30 -11 30 -41 0 -30 3 -34 25 -34 18 0 25 -5 25 -20 0
-13 7 -20 20 -20 15 0 20 -7 20 -25 0 -18 5 -25 20 -25 13 0 20 -7 20 -20 0
-16 7 -20 30 -20 20 0 30 -5 30 -15 0 -8 7 -15 15 -15 8 0 15 -9 15 -20 0 -15
7 -20 25 -20 18 0 25 -5 25 -19 0 -19 25 -31 68 -31 19 0 22 -5 22 -35 0 -28
4 -35 20 -35 11 0 20 -7 20 -15 0 -9 9 -15 25 -15 21 0 25 -5 25 -30 0 -23 4
-30 20 -30 11 0 20 -7 20 -15 0 -10 10 -15 30 -15 20 0 30 -5 30 -15 0 -9 9
-15 25 -15 21 0 25 -5 25 -30 0 -23 4 -30 20 -30 11 0 20 -7 20 -15 0 -12 15
-15 75 -15 60 0 75 -3 75 -15 0 -11 12 -15 50 -15 38 0 50 4 50 15 0 12 16 15
85 15 69 0 85 3 85 15 0 9 9 15 25 15 21 0 25 5 25 30 0 23 4 30 20 30 11 0
20 7 20 15 0 10 10 15 29 15 30 0 41 18 41 68 0 19 5 22 35 22 24 0 35 5 35
15 0 8 7 15 15 15 10 0 15 10 15 34 0 33 1 34 50 40 l50 7 0 39 c0 38 2 40 30
40 l30 0 0 135 0 135 -30 0 c-29 0 -30 2 -30 45 0 38 -3 45 -20 45 -11 0 -20
7 -20 15 0 10 -10 15 -30 15 -28 0 -30 3 -30 35 0 24 -5 35 -15 35 -8 0 -15 9
-15 20 0 16 -7 20 -34 20 -30 0 -35 4 -41 30 -5 25 -11 30 -36 30 -22 0 -29 5
-29 20 0 13 -7 20 -20 20 -13 0 -20 7 -20 20 0 15 -7 20 -25 20 -21 0 -25 5
-25 30 0 23 -4 30 -20 30 -13 0 -20 7 -20 20 0 13 -7 20 -20 20 -14 0 -20 7
-20 24 0 24 -21 36 -67 36 -14 0 -23 6 -23 15 0 8 -7 15 -15 15 -9 0 -15 9
-15 25 0 22 -4 25 -35 25 -24 0 -35 5 -35 15 0 8 -7 15 -15 15 -9 0 -15 9 -15
25 0 18 -5 25 -20 25 -15 0 -20 7 -20 25 0 18 -5 25 -20 25 -11 0 -20 7 -20
15 0 8 -9 15 -20 15 -16 0 -20 7 -20 30 0 23 -4 30 -20 30 -13 0 -20 7 -20 20
0 15 -7 20 -25 20 -18 0 -25 5 -25 20 0 16 -7 20 -30 20 -23 0 -30 4 -30 20 0
13 -7 20 -20 20 -11 0 -20 7 -20 15 0 9 -9 15 -25 15 -20 0 -25 5 -25 25 0 18
-5 25 -20 25 -13 0 -20 7 -20 20 0 16 -7 20 -30 20 -20 0 -30 5 -30 15 0 8 -7
15 -15 15 -10 0 -15 10 -15 30 0 25 -4 30 -25 30 -16 0 -25 6 -25 15 0 8 -7
15 -15 15 -9 0 -15 9 -15 25 0 21 -5 25 -30 25 -20 0 -30 5 -30 15 0 8 -9 15
-20 15 -13 0 -20 7 -20 19 0 16 -9 21 -45 27 -43 6 -45 8 -45 40 0 24 -5 34
-15 34 -8 0 -15 7 -15 15 0 8 -7 15 -15 15 -10 0 -15 10 -15 30 0 28 -3 30
-35 30 -24 0 -35 5 -35 15 0 8 -9 15 -20 15 -13 0 -20 7 -20 20 0 13 -7 20
-20 20 -13 0 -20 7 -20 20 0 15 -7 20 -25 20 -16 0 -25 6 -25 15 0 8 -4 15
-10 15 -5 0 -10 11 -10 25 0 21 -5 25 -30 25 -23 0 -30 4 -30 20 0 11 -7 20
-15 20 -8 0 -15 9 -15 20 0 16 -7 20 -35 20 -31 0 -35 3 -35 25 0 16 -6 25
-15 25 -8 0 -15 9 -15 20 0 15 -7 20 -25 20 -18 0 -25 5 -25 20 0 11 -7 20
-15 20 -8 0 -15 7 -15 15 0 9 -9 15 -25 15 -18 0 -25 5 -25 20 0 15 -7 20 -25
20 -18 0 -25 5 -25 20 0 13 -7 20 -20 20 -15 0 -20 7 -20 25 0 20 -5 25 -25
25 -16 0 -25 6 -25 15 0 8 -7 15 -15 15 -10 0 -15 10 -15 34 0 36 -15 46 -72
46 -21 0 -28 5 -28 20 0 13 -7 20 -20 20 -16 0 -20 7 -20 35 0 28 4 35 20 35
15 0 20 7 20 25 0 22 4 25 35 25 28 0 35 4 35 20 0 11 7 20 15 20 8 0 15 9 15
20 0 11 7 20 15 20 10 0 15 11 15 35 0 31 3 35 25 35 22 0 25 4 25 35 0 28 4
35 20 35 11 0 20 7 20 15 0 9 9 15 25 15 16 0 25 6 25 15 0 9 9 15 25 15 23 0
25 3 25 50 0 38 4 50 15 50 8 0 15 9 15 20 0 15 7 20 25 20 23 0 25 4 25 45 0
33 4 45 15 45 8 0 15 9 15 20 0 16 7 20 35 20 33 0 35 2 35 35 0 24 5 35 15
35 11 0 15 11 15 40 0 38 2 40 30 40 20 0 30 5 30 15 0 8 5 15 10 15 6 0 10
20 10 45 0 41 2 45 25 45 23 0 25 4 25 40 0 33 3 40 20 40 18 0 20 7 20 60 0
53 2 60 20 60 17 0 20 7 20 45 0 45 0 45 35 45 34 0 35 1 35 40 0 29 4 40 15
40 12 0 15 13 15 55 0 42 3 55 15 55 12 0 15 15 15 75 0 73 1 75 25 75 23 0
25 4 25 45 0 38 3 45 20 45 18 0 20 7 20 80 0 73 2 80 20 80 18 0 20 7 20 85
l0 85 30 0 30 0 0 130 c0 109 2 130 15 130 13 0 15 68 15 555 0 487 -2 555
-15 555 -13 0 -15 21 -15 125 l0 125 -30 0 -30 0 0 80 c0 73 -2 80 -20 80 -18
0 -20 7 -20 85 0 78 -2 85 -20 85 -18 0 -20 7 -20 55 0 52 -1 55 -25 55 -24 0
-25 3 -25 60 0 47 -3 60 -15 60 -12 0 -15 13 -15 55 0 42 -3 55 -15 55 -12 0
-15 13 -15 55 l0 55 -35 0 c-32 0 -35 2 -35 30 0 23 -4 30 -20 30 -18 0 -20 7
-20 60 0 53 -2 60 -20 60 -17 0 -20 7 -20 50 0 47 -2 50 -25 50 -22 0 -25 4
-25 40 0 22 -4 40 -10 40 -5 0 -10 9 -10 20 0 16 -7 20 -30 20 -28 0 -30 3
-30 35 0 24 -5 35 -15 35 -10 0 -15 11 -15 35 0 33 -2 35 -35 35 -24 0 -35 5
-35 15 0 8 -7 15 -15 15 -11 0 -15 12 -15 50 0 47 -2 50 -25 50 -20 0 -25 5
-25 25 0 16 -6 25 -15 25 -11 0 -15 12 -15 44 l0 44 -50 7 c-44 6 -50 10 -50
31 0 17 -6 24 -20 24 -17 0 -20 7 -20 45 0 41 -2 45 -25 45 -18 0 -25 5 -25
20 0 11 -7 20 -15 20 -8 0 -15 9 -15 20 0 11 -7 20 -15 20 -9 0 -15 9 -15 25
0 22 -4 25 -35 25 -28 0 -35 4 -35 20 0 13 -7 20 -20 20 -11 0 -20 7 -20 15 0
9 -9 15 -25 15 -23 0 -25 4 -25 45 0 38 -3 45 -20 45 -11 0 -20 7 -20 15 0 8
-4 15 -10 15 -5 0 -10 7 -10 15 0 10 -10 15 -30 15 -25 0 -30 4 -30 25 0 23
-3 25 -50 25 -43 0 -50 3 -50 20 0 11 -7 20 -15 20 -8 0 -15 9 -15 20 0 13 -7
20 -20 20 -11 0 -20 7 -20 15 0 8 -9 15 -20 15 -15 0 -20 7 -20 25 0 20 -5 25
-25 25 -16 0 -25 6 -25 15 0 8 -7 15 -15 15 -10 0 -15 10 -15 30 0 30 -1 30
-55 30 -42 0 -55 3 -55 15 0 8 -7 15 -15 15 -8 0 -15 9 -15 20 0 13 -7 20 -20
20 -16 0 -20 7 -20 30 0 29 -1 30 -50 30 -46 0 -50 2 -50 24 0 25 -28 36 -91
36 -22 0 -29 5 -29 20 0 13 -7 20 -20 20 -15 0 -20 7 -20 25 0 23 -3 25 -50
25 -47 0 -50 2 -50 25 0 23 -4 25 -45 25 -38 0 -45 3 -45 20 0 11 -7 20 -15
20 -8 0 -15 9 -15 20 0 18 -7 20 -55 20 -48 0 -55 2 -55 20 0 17 -7 20 -45 20
-25 0 -45 5 -45 10 0 6 -27 10 -60 10 -47 0 -60 3 -60 15 0 12 -13 15 -55 15
-52 0 -55 1 -55 25 0 23 -4 25 -40 25 -29 0 -40 4 -40 15 0 12 -13 15 -60 15
l-60 0 0 35 0 35 -60 0 c-47 0 -60 3 -60 15 0 12 -15 15 -75 15 -68 0 -75 2
-75 20 0 19 -7 20 -90 20 -89 0 -90 0 -90 25 0 25 -1 25 -85 25 -82 0 -85 1
-85 23 l0 24 -197 6 c-187 7 -1140 6 -1420 0z m887 -1013 c0 -19 7 -20 195
-20 188 0 195 -1 195 -20 0 -19 7 -20 110 -20 l110 0 0 -25 c0 -25 1 -25 85
-25 69 0 85 -3 85 -15 0 -12 13 -15 60 -15 47 0 60 -3 60 -15 0 -12 14 -15 70
-15 68 0 70 -1 70 -25 0 -23 4 -25 45 -25 38 0 45 -3 45 -20 0 -18 7 -20 70
-20 56 0 70 -3 70 -15 0 -11 11 -15 40 -15 33 0 40 -3 40 -20 0 -17 7 -20 45
-20 41 0 45 -2 45 -25 0 -16 6 -25 15 -25 8 0 15 -9 15 -20 0 -17 7 -20 40
-20 33 0 40 -3 40 -20 0 -18 7 -20 55 -20 48 0 55 -2 55 -20 0 -13 7 -20 20
-20 15 0 20 -7 20 -25 0 -22 4 -25 40 -25 36 0 40 -3 40 -24 0 -22 6 -26 45
-32 39 -5 45 -10 45 -30 0 -17 6 -24 20 -24 13 0 20 -7 20 -20 0 -17 7 -20 50
-20 47 0 50 -2 50 -25 0 -16 6 -25 15 -25 8 0 15 -7 15 -15 0 -10 10 -15 30
-15 28 0 30 -3 30 -35 0 -32 2 -35 30 -35 20 0 30 -5 30 -15 0 -8 9 -15 20
-15 15 0 20 -7 20 -25 0 -18 5 -25 20 -25 11 0 20 -4 20 -10 0 -5 7 -10 15
-10 8 0 15 -9 15 -20 0 -15 7 -20 25 -20 16 0 25 -6 25 -15 0 -8 9 -15 20 -15
17 0 20 -7 20 -40 0 -33 3 -40 20 -40 13 0 20 -7 20 -20 0 -16 7 -20 30 -20
25 0 30 -4 30 -25 0 -18 5 -25 20 -25 15 0 20 -7 20 -25 0 -16 6 -25 15 -25
10 0 15 -10 15 -30 0 -23 4 -30 20 -30 16 0 20 -7 20 -30 0 -28 3 -30 35 -30
32 0 35 -2 35 -30 0 -20 5 -30 15 -30 12 0 15 -13 15 -55 0 -52 1 -55 25 -55
16 0 25 -6 25 -15 0 -8 9 -15 20 -15 17 0 20 -7 20 -40 0 -33 3 -40 20 -40 17
0 20 -7 20 -45 0 -33 4 -45 15 -45 12 0 15 -13 15 -55 l0 -55 35 0 c32 0 35
-2 35 -30 0 -20 5 -30 15 -30 12 0 15 -14 15 -70 l0 -70 30 0 30 0 0 -65 c0
-37 4 -65 10 -65 6 0 10 -30 10 -70 0 -63 2 -70 20 -70 19 0 20 -7 20 -110 l0
-110 25 0 25 0 0 -195 c0 -188 1 -195 20 -195 19 0 20 -7 20 -95 0 -88 -1 -95
-20 -95 -19 0 -20 -7 -20 -185 l0 -185 -25 0 -25 0 0 -105 c0 -98 -1 -105 -20
-105 -18 0 -20 -7 -20 -85 0 -50 -4 -85 -10 -85 -6 0 -10 -28 -10 -65 l0 -65
-30 0 -30 0 0 -65 c0 -51 -3 -65 -15 -65 -10 0 -15 -11 -15 -35 0 -33 -2 -35
-35 -35 l-35 0 0 -60 c0 -47 -3 -60 -15 -60 -11 0 -15 -11 -15 -40 0 -33 -3
-40 -20 -40 -16 0 -20 -7 -20 -35 0 -28 -4 -35 -20 -35 -13 0 -20 -7 -20 -20
0 -15 -7 -20 -25 -20 -22 0 -25 -4 -25 -40 0 -29 -4 -40 -15 -40 -11 0 -15
-12 -15 -45 0 -45 0 -45 -35 -45 -28 0 -35 -4 -35 -20 0 -13 -7 -20 -20 -20
-17 0 -20 -7 -20 -40 0 -29 -4 -40 -15 -40 -8 0 -15 -7 -15 -15 0 -8 -9 -15
-20 -15 -15 0 -20 -7 -20 -25 0 -21 -5 -25 -30 -25 -20 0 -30 -5 -30 -15 0 -8
-9 -15 -20 -15 -17 0 -20 -7 -20 -45 0 -38 -3 -45 -20 -45 -16 0 -20 -7 -20
-34 0 -31 -3 -34 -40 -40 -31 -5 -40 -11 -40 -26 0 -13 -7 -20 -20 -20 -11 0
-20 -7 -20 -15 0 -8 -9 -15 -20 -15 -13 0 -20 -7 -20 -20 0 -16 -7 -20 -30
-20 -23 0 -30 -4 -30 -20 0 -16 -7 -20 -30 -20 -25 0 -30 -4 -30 -25 0 -16 -6
-25 -15 -25 -8 0 -15 -9 -15 -20 0 -17 -7 -20 -50 -20 -47 0 -50 -2 -50 -25 0
-18 -5 -25 -20 -25 -15 0 -20 -7 -20 -25 0 -20 -5 -25 -25 -25 -16 0 -25 -6
-25 -15 0 -8 -9 -15 -20 -15 -11 0 -20 -7 -20 -15 0 -11 -11 -15 -40 -15 -33
0 -40 -3 -40 -20 0 -13 -7 -20 -20 -20 -11 0 -20 -7 -20 -15 0 -12 -13 -15
-55 -15 l-55 0 0 -35 c0 -34 -1 -35 -40 -35 -33 0 -40 -3 -40 -20 0 -11 -7
-20 -15 -20 -8 0 -15 -9 -15 -20 0 -17 -7 -20 -45 -20 -41 0 -45 -2 -45 -25 0
-22 -4 -25 -40 -25 -29 0 -40 -4 -40 -15 0 -12 -14 -15 -70 -15 -63 0 -70 -2
-70 -20 0 -17 -7 -20 -45 -20 -37 0 -45 -3 -45 -19 0 -17 -12 -19 -130 -26
l-130 -7 0 -34 0 -34 -85 0 c-69 0 -85 -3 -85 -15 0 -12 -19 -15 -110 -15
l-110 0 0 -25 0 -25 -195 0 c-188 0 -195 -1 -195 -20 0 -19 -7 -20 -135 -20
-128 0 -135 1 -135 20 0 19 -7 20 -210 20 l-210 0 0 25 0 25 -100 0 c-82 0
-100 3 -100 15 0 12 -16 15 -80 15 l-80 0 0 35 0 35 -48 0 c-27 0 -90 3 -140
6 -81 6 -92 9 -92 25 0 16 -8 19 -50 19 -43 0 -50 3 -50 20 0 18 -7 20 -55 20
-42 0 -55 3 -55 15 0 11 -11 15 -40 15 -36 0 -40 3 -40 25 0 23 -4 25 -45 25
-38 0 -45 3 -45 20 0 15 -7 20 -25 20 -18 0 -25 5 -25 20 0 17 -7 20 -45 20
-45 0 -45 0 -45 35 0 35 0 35 -45 35 -33 0 -45 4 -45 15 0 8 -7 15 -15 15 -8
0 -15 9 -15 20 0 17 -7 20 -45 20 -33 0 -45 4 -45 15 0 8 -9 15 -20 15 -11 0
-20 7 -20 15 0 10 -10 15 -30 15 -25 0 -30 4 -30 25 0 18 -5 25 -20 25 -15 0
-20 7 -20 25 0 22 -4 25 -35 25 -28 0 -35 4 -35 20 0 16 -7 20 -30 20 -25 0
-30 4 -30 25 0 16 -6 25 -15 25 -8 0 -15 9 -15 20 0 16 -7 20 -35 20 -28 0
-35 4 -35 20 0 13 -7 20 -20 20 -11 0 -20 7 -20 15 0 8 -4 15 -10 15 -5 0 -10
9 -10 20 0 16 -9 21 -50 26 -49 6 -50 7 -50 40 0 30 -3 34 -25 34 -23 0 -25 4
-25 45 0 38 -3 45 -20 45 -11 0 -20 7 -20 15 0 8 -9 15 -20 15 -15 0 -20 7
-20 25 0 22 -4 25 -35 25 -24 0 -35 5 -35 15 0 8 -7 15 -15 15 -11 0 -15 11
-15 40 0 38 -2 40 -30 40 -23 0 -30 4 -30 20 0 11 -7 20 -15 20 -11 0 -15 12
-15 45 0 33 -4 45 -15 45 -11 0 -15 11 -15 40 0 36 -2 40 -25 40 -18 0 -25 5
-25 20 0 11 -7 20 -15 20 -10 0 -15 11 -15 35 0 33 -2 35 -35 35 -34 0 -35 1
-35 40 0 33 -3 40 -20 40 -18 0 -20 7 -20 60 0 57 -1 60 -25 60 -22 0 -25 4
-25 35 0 28 -4 35 -20 35 -18 0 -20 7 -20 65 0 51 -3 65 -15 65 -12 0 -15 14
-15 65 0 63 -1 65 -25 65 -25 0 -25 1 -25 85 0 78 -2 85 -20 85 -19 0 -20 7
-20 105 0 98 -1 105 -20 105 -19 0 -20 7 -20 185 l0 185 -35 0 -35 0 0 95 0
95 35 0 35 0 0 195 c0 188 1 195 20 195 19 0 20 7 20 110 0 103 1 110 20 110
18 0 20 7 20 70 0 68 1 70 25 70 24 0 25 2 25 65 0 51 3 65 15 65 12 0 15 14
15 70 0 63 2 70 20 70 16 0 20 7 20 30 0 25 4 30 25 30 24 0 25 3 25 55 0 48
2 55 20 55 17 0 20 7 20 45 0 45 0 45 35 45 34 0 35 1 35 40 0 29 4 40 15 40
8 0 15 7 15 15 0 9 9 15 25 15 24 0 25 3 25 55 0 42 3 55 15 55 10 0 15 10 15
30 0 20 5 30 15 30 10 0 15 10 15 30 0 27 3 30 30 30 27 0 30 3 30 30 0 20 5
30 15 30 9 0 15 9 15 25 0 22 4 25 35 25 31 0 35 3 35 25 0 18 5 25 20 25 13
0 20 7 20 20 0 13 7 20 20 20 17 0 20 7 20 40 0 36 3 40 25 40 16 0 25 6 25
15 0 10 10 15 30 15 23 0 30 4 30 20 0 12 7 20 16 20 22 0 44 25 44 49 0 14 6
21 20 21 11 0 20 7 20 15 0 10 11 15 35 15 33 0 35 2 35 35 0 24 5 35 15 35 8
0 15 7 15 15 0 10 10 15 30 15 25 0 30 4 30 25 0 22 4 25 35 25 28 0 35 4 35
20 0 13 7 20 20 20 14 0 20 7 20 24 0 21 6 24 50 30 45 6 50 9 50 31 0 23 4
25 45 25 41 0 45 2 45 25 0 16 6 25 15 25 8 0 15 9 15 20 0 17 7 20 45 20 38
0 45 3 45 20 0 17 7 20 45 20 38 0 45 3 45 20 0 15 7 20 25 20 20 0 25 5 25
25 0 23 4 25 45 25 38 0 45 3 45 20 0 17 7 20 40 20 29 0 40 4 40 15 0 12 13
15 55 15 48 0 55 2 55 20 0 17 7 20 50 20 47 0 50 2 50 25 0 24 3 25 60 25 47
0 60 3 60 15 0 12 16 15 80 15 64 0 80 3 80 15 0 12 16 15 80 15 79 0 80 0 80
25 l0 25 100 0 c93 0 100 1 100 20 0 19 7 20 210 20 203 0 210 1 210 20 0 19
7 20 135 20 128 0 135 -1 135 -20z"/>
<path d="M4108 8705 c-1081 -131 -1972 -917 -2233 -1968 -54 -218 -66 -317
-72 -578 -4 -186 -2 -263 11 -370 42 -331 131 -620 281 -906 292 -560 769
-988 1370 -1229 169 -67 241 -65 291 12 15 22 17 57 15 292 -1 147 -3 267 -4
269 -1 1 -45 -5 -97 -13 -206 -30 -376 -12 -516 56 -135 66 -216 151 -275 291
-69 163 -165 287 -282 363 -132 87 -128 147 11 145 70 -1 146 -22 120 -34 -39
-16 -10 -70 34 -63 17 2 23 9 22 26 -1 29 4 28 55 -10 41 -29 42 -32 22 -39
-27 -10 -28 -50 -2 -73 25 -23 54 -17 61 12 l5 23 26 -28 c15 -15 44 -55 65
-88 50 -80 138 -171 197 -205 41 -23 45 -29 32 -40 -35 -29 -2 -80 52 -80 33
0 58 22 50 42 -3 10 25 13 127 13 117 0 140 3 217 28 l85 28 17 71 c20 88 67
189 112 244 19 23 35 44 35 47 0 2 -28 8 -62 11 -176 20 -404 84 -540 152
-318 160 -506 436 -562 826 -58 402 -3 679 183 925 l61 82 -20 73 c-44 155
-35 370 23 543 l23 70 90 -1 c68 -1 108 -7 169 -28 104 -35 257 -110 370 -181
l89 -56 86 20 c134 33 246 49 414 62 233 16 494 -5 726 -62 l86 -20 89 56
c203 128 396 204 537 213 l87 5 14 -36 c9 -19 26 -75 38 -124 33 -127 34 -344
1 -456 l-22 -79 61 -81 c185 -245 241 -523 183 -921 -66 -460 -313 -760 -739
-901 -84 -27 -281 -70 -377 -81 l-56 -7 40 -50 c51 -65 82 -127 109 -219 21
-69 23 -97 28 -540 l6 -466 24 -26 c34 -36 92 -51 148 -37 73 19 240 89 375
157 472 241 875 641 1123 1117 150 286 239 575 281 906 13 107 15 184 11 370
-5 250 -22 383 -73 584 -267 1056 -1159 1835 -2243 1962 -153 18 -464 18 -613
0z"/>
<path d="M2930 4805 c-12 -14 -6 -49 12 -72 16 -20 68 -16 69 5 2 33 -2 47
-23 65 -25 21 -42 22 -58 2z"/>
<path d="M3056 4624 c-15 -40 46 -97 88 -81 22 9 20 53 -4 77 -24 24 -75 27
-84 4z"/>
<path d="M3456 4494 c-9 -8 -16 -19 -16 -24 0 -19 33 -40 64 -40 44 0 72 30
56 59 -13 26 -80 29 -104 5z"/>
<path d="M3676 4495 c-32 -32 -12 -65 39 -65 42 0 68 20 63 51 -2 20 -9 24
-44 27 -28 2 -47 -2 -58 -13z"/>
</g>
</svg>
