<svg width="23" height="23" viewBox="0 0 23 23" fill="none" xmlns="http://www.w3.org/2000/svg">
<path d="M10.6552 14.1117C10.4303 14.1062 10.2007 14.1034 9.96552 14.1034C6.12414 14.1034 3.58828 14.9069 2.22276 15.5124C1.47586 15.8441 1 16.5848 1 17.4021V21H12.7241" stroke="#111111" stroke-width="2" stroke-miterlimit="10" stroke-linecap="square"/>
<path d="M5.13794 5.82759C5.13794 3.16138 7.29932 1 9.96553 1C12.6317 1 14.7931 3.16138 14.7931 5.82759C14.7931 8.49379 12.6317 11.3448 9.96553 11.3448C7.29932 11.3448 5.13794 8.49379 5.13794 5.82759Z" stroke="#111111" stroke-width="2" stroke-miterlimit="10" stroke-linecap="square"/>
<path d="M21.0283 14.0979C20.0214 13.0559 18.3421 13.2262 17.5518 14.4586C16.7607 13.2248 15.0807 13.0572 14.0752 14.0979C13.1938 15.0103 13.1938 16.489 14.0752 17.4014L17.5511 21L21.0283 17.4014C21.9104 16.489 21.9104 15.0103 21.0283 14.0979Z" stroke="#111111" stroke-width="2" stroke-miterlimit="10" stroke-linecap="square"/>
</svg>
